<svg aria-roledescription="gitGraph" role="graphics-document document" viewBox="-285.09375 -19 1893.09375 1303.3919677734375" style="max-width: 1893.09375px;" xmlns="http://www.w3.org/2000/svg" width="100%" id="container"><style>#container{font-family:"trebuchet ms",verdana,arial,sans-serif;font-size:16px;fill:#333;}#container .error-icon{fill:#552222;}#container .error-text{fill:#552222;stroke:#552222;}#container .edge-thickness-normal{stroke-width:1px;}#container .edge-thickness-thick{stroke-width:3.5px;}#container .edge-pattern-solid{stroke-dasharray:0;}#container .edge-thickness-invisible{stroke-width:0;fill:none;}#container .edge-pattern-dashed{stroke-dasharray:3;}#container .edge-pattern-dotted{stroke-dasharray:2;}#container .marker{fill:#333333;stroke:#333333;}#container .marker.cross{stroke:#333333;}#container svg{font-family:"trebuchet ms",verdana,arial,sans-serif;font-size:16px;}#container p{margin:0;}#container .commit-id,#container .commit-msg,#container .branch-label{fill:lightgrey;color:lightgrey;font-family:'trebuchet ms',verdana,arial,sans-serif;font-family:var(--mermaid-font-family);}#container .branch-label0{fill:#ffffff;}#container .commit0{stroke:hsl(240, 100%, 46.2745098039%);fill:hsl(240, 100%, 46.2745098039%);}#container .commit-highlight0{stroke:hsl(60, 100%, 3.7254901961%);fill:hsl(60, 100%, 3.7254901961%);}#container .label0{fill:hsl(240, 100%, 46.2745098039%);}#container .arrow0{stroke:hsl(240, 100%, 46.2745098039%);}#container .branch-label1{fill:black;}#container .commit1{stroke:hsl(60, 100%, 43.5294117647%);fill:hsl(60, 100%, 43.5294117647%);}#container .commit-highlight1{stroke:rgb(0, 0, 160.5);fill:rgb(0, 0, 160.5);}#container .label1{fill:hsl(60, 100%, 43.5294117647%);}#container .arrow1{stroke:hsl(60, 100%, 43.5294117647%);}#container .branch-label2{fill:black;}#container .commit2{stroke:hsl(80, 100%, 46.2745098039%);fill:hsl(80, 100%, 46.2745098039%);}#container .commit-highlight2{stroke:rgb(48.8333333334, 0, 146.5000000001);fill:rgb(48.8333333334, 0, 146.5000000001);}#container .label2{fill:hsl(80, 100%, 46.2745098039%);}#container .arrow2{stroke:hsl(80, 100%, 46.2745098039%);}#container .branch-label3{fill:#ffffff;}#container .commit3{stroke:hsl(210, 100%, 46.2745098039%);fill:hsl(210, 100%, 46.2745098039%);}#container .commit-highlight3{stroke:rgb(146.5000000001, 73.2500000001, 0);fill:rgb(146.5000000001, 73.2500000001, 0);}#container .label3{fill:hsl(210, 100%, 46.2745098039%);}#container .arrow3{stroke:hsl(210, 100%, 46.2745098039%);}#container .branch-label4{fill:black;}#container .commit4{stroke:hsl(180, 100%, 46.2745098039%);fill:hsl(180, 100%, 46.2745098039%);}#container .commit-highlight4{stroke:rgb(146.5000000001, 0, 0);fill:rgb(146.5000000001, 0, 0);}#container .label4{fill:hsl(180, 100%, 46.2745098039%);}#container .arrow4{stroke:hsl(180, 100%, 46.2745098039%);}#container .branch-label5{fill:black;}#container .commit5{stroke:hsl(150, 100%, 46.2745098039%);fill:hsl(150, 100%, 46.2745098039%);}#container .commit-highlight5{stroke:rgb(146.5000000001, 0, 73.2500000001);fill:rgb(146.5000000001, 0, 73.2500000001);}#container .label5{fill:hsl(150, 100%, 46.2745098039%);}#container .arrow5{stroke:hsl(150, 100%, 46.2745098039%);}#container .branch-label6{fill:black;}#container .commit6{stroke:hsl(300, 100%, 46.2745098039%);fill:hsl(300, 100%, 46.2745098039%);}#container .commit-highlight6{stroke:rgb(0, 146.5000000001, 0);fill:rgb(0, 146.5000000001, 0);}#container .label6{fill:hsl(300, 100%, 46.2745098039%);}#container .arrow6{stroke:hsl(300, 100%, 46.2745098039%);}#container .branch-label7{fill:black;}#container .commit7{stroke:hsl(0, 100%, 46.2745098039%);fill:hsl(0, 100%, 46.2745098039%);}#container .commit-highlight7{stroke:rgb(0, 146.5000000001, 146.5000000001);fill:rgb(0, 146.5000000001, 146.5000000001);}#container .label7{fill:hsl(0, 100%, 46.2745098039%);}#container .arrow7{stroke:hsl(0, 100%, 46.2745098039%);}#container .branch{stroke-width:1;stroke:#333333;stroke-dasharray:2;}#container .commit-label{font-size:10px;fill:#000021;}#container .commit-label-bkg{font-size:10px;fill:#ffffde;opacity:0.5;}#container .tag-label{font-size:10px;fill:#131300;}#container .tag-label-bkg{fill:#ECECFF;stroke:hsl(240, 60%, 86.2745098039%);}#container .tag-hole{fill:#333;}#container .commit-merge{stroke:#ECECFF;fill:#ECECFF;}#container .commit-reverse{stroke:#ECECFF;fill:#ECECFF;stroke-width:3;}#container .commit-highlight-inner{stroke:#ECECFF;fill:#ECECFF;}#container .arrow{stroke-width:8;stroke-linecap:round;fill:none;}#container .gitTitleText{text-anchor:middle;font-size:18px;fill:#333;}#container :root{--mermaid-font-family:"trebuchet ms",verdana,arial,sans-serif;}</style><g></g><g class="commit-bullets"></g><g class="commit-labels"></g><g><line class="branch branch0" y2="0" x2="1600" y1="0" x1="0"></line><rect transform="translate(-19, -9.5)" height="23" width="54.3125" y="-1.5" x="-70.3125" ry="4" rx="4" class="branchLabelBkg label0"></rect><g class="branchLabel"><g transform="translate(-80.3125, -10.5)" class="label branch-label0"><text><tspan class="row" x="0" dy="1em" xml:space="preserve">main</tspan></text></g></g><line class="branch branch1" y2="90" x2="1600" y1="90" x1="0"></line><rect transform="translate(-19, 80.5)" height="23" width="70.328125" y="-1.5" x="-86.328125" ry="4" rx="4" class="branchLabelBkg label1"></rect><g class="branchLabel"><g transform="translate(-96.328125, 79.5)" class="label branch-label1"><text><tspan class="row" x="0" dy="1em" xml:space="preserve">release</tspan></text></g></g><line class="branch branch2" y2="180" x2="1600" y1="180" x1="0"></line><rect transform="translate(-19, 170.5)" height="23" width="76.21875" y="-1.5" x="-92.21875" ry="4" rx="4" class="branchLabelBkg label2"></rect><g class="branchLabel"><g transform="translate(-102.21875, 169.5)" class="label branch-label2"><text><tspan class="row" x="0" dy="1em" xml:space="preserve">develop</tspan></text></g></g><line class="branch branch3" y2="270" x2="1600" y1="270" x1="0"></line><rect transform="translate(-19, 260.5)" height="23" width="110.140625" y="-1.5" x="-126.140625" ry="4" rx="4" class="branchLabelBkg label3"></rect><g class="branchLabel"><g transform="translate(-136.140625, 259.5)" class="label branch-label3"><text><tspan class="row" x="0" dy="1em" xml:space="preserve">feature/data</tspan></text></g></g><line class="branch branch4" y2="360" x2="1600" y1="360" x1="0"></line><rect transform="translate(-19, 350.5)" height="23" width="242.09375" y="-1.5" x="-258.09375" ry="4" rx="4" class="branchLabelBkg label4"></rect><g class="branchLabel"><g transform="translate(-268.09375, 349.5)" class="label branch-label4"><text><tspan class="row" x="0" dy="1em" xml:space="preserve">feature/classificacao_consumo</tspan></text></g></g><line class="branch branch5" y2="450" x2="1600" y1="450" x1="0"></line><rect transform="translate(-19, 440.5)" height="23" width="168.453125" y="-1.5" x="-184.453125" ry="4" rx="4" class="branchLabelBkg label5"></rect><g class="branchLabel"><g transform="translate(-194.453125, 439.5)" class="label branch-label5"><text><tspan class="row" x="0" dy="1em" xml:space="preserve">feature/geracao_lixo</tspan></text></g></g><line class="branch branch6" y2="540" x2="1600" y1="540" x1="0"></line><rect transform="translate(-19, 530.5)" height="23" width="185.78125" y="-1.5" x="-201.78125" ry="4" rx="4" class="branchLabelBkg label6"></rect><g class="branchLabel"><g transform="translate(-211.78125, 529.5)" class="label branch-label6"><text><tspan class="row" x="0" dy="1em" xml:space="preserve">feature/consumo_agua</tspan></text></g></g><line class="branch branch7" y2="630" x2="1600" y1="630" x1="0"></line><rect transform="translate(-19, 620.5)" height="23" width="205.359375" y="-1.5" x="-221.359375" ry="4" rx="4" class="branchLabelBkg label7"></rect><g class="branchLabel"><g transform="translate(-231.359375, 619.5)" class="label branch-label7"><text><tspan class="row" x="0" dy="1em" xml:space="preserve">feature/consumo_energia</tspan></text></g></g><line class="branch branch0" y2="720" x2="1600" y1="720" x1="0"></line><rect transform="translate(-19, 710.5)" height="23" width="195.3125" y="-1.5" x="-211.3125" ry="4" rx="4" class="branchLabelBkg label0"></rect><g class="branchLabel"><g transform="translate(-221.3125, 709.5)" class="label branch-label0"><text><tspan class="row" x="0" dy="1em" xml:space="preserve">feature/uso_transportes</tspan></text></g></g><line class="branch branch1" y2="810" x2="1600" y1="810" x1="0"></line><rect transform="translate(-19, 800.5)" height="23" width="181.6875" y="-1.5" x="-197.6875" ry="4" rx="4" class="branchLabelBkg label1"></rect><g class="branchLabel"><g transform="translate(-207.6875, 799.5)" class="label branch-label1"><text><tspan class="row" x="0" dy="1em" xml:space="preserve">feature/integracao_bd</tspan></text></g></g><line class="branch branch2" y2="900" x2="1600" y1="900" x1="0"></line><rect transform="translate(-19, 890.5)" height="23" width="141.890625" y="-1.5" x="-157.890625" ry="4" rx="4" class="branchLabelBkg label2"></rect><g class="branchLabel"><g transform="translate(-167.890625, 889.5)" class="label branch-label2"><text><tspan class="row" x="0" dy="1em" xml:space="preserve">feature/historico</tspan></text></g></g><line class="branch branch3" y2="990" x2="1600" y1="990" x1="0"></line><rect transform="translate(-19, 980.5)" height="23" width="117.40625" y="-1.5" x="-133.40625" ry="4" rx="4" class="branchLabelBkg label3"></rect><g class="branchLabel"><g transform="translate(-143.40625, 979.5)" class="label branch-label3"><text><tspan class="row" x="0" dy="1em" xml:space="preserve">feature/CRUD</tspan></text></g></g><line class="branch branch4" y2="1080" x2="1600" y1="1080" x1="0"></line><rect transform="translate(-19, 1070.5)" height="23" width="118.9375" y="-1.5" x="-134.9375" ry="4" rx="4" class="branchLabelBkg label4"></rect><g class="branchLabel"><g transform="translate(-144.9375, 1069.5)" class="label branch-label4"><text><tspan class="row" x="0" dy="1em" xml:space="preserve">feature/menu</tspan></text></g></g><line class="branch branch5" y2="1170" x2="1600" y1="1170" x1="0"></line><rect transform="translate(-19, 1160.5)" height="23" width="123.03125" y="-1.5" x="-139.03125" ry="4" rx="4" class="branchLabelBkg label5"></rect><g class="branchLabel"><g transform="translate(-149.03125, 1159.5)" class="label branch-label5"><text><tspan class="row" x="0" dy="1em" xml:space="preserve">feature/media</tspan></text></g></g></g><g class="commit-arrows"><path class="arrow arrow2" d="M 10 0 L 10 160 A 20 20, 0, 0, 0, 30 180 L 60 180"></path><path class="arrow arrow3" d="M 60 180 L 60 250 A 20 20, 0, 0, 0, 80 270 L 110 270"></path><path class="arrow arrow2" d="M 60 180 L 160 180"></path><path class="arrow arrow3" d="M 110 270 L 140 270 A 20 20, 0, 0, 0, 160 250 L 160 180"></path><path class="arrow arrow4" d="M 160 180 L 160 340 A 20 20, 0, 0, 0, 180 360 L 210 360"></path><path class="arrow arrow2" d="M 160 180 L 260 180"></path><path class="arrow arrow4" d="M 210 360 L 240 360 A 20 20, 0, 0, 0, 260 340 L 260 180"></path><path class="arrow arrow5" d="M 260 180 L 260 430 A 20 20, 0, 0, 0, 280 450 L 310 450"></path><path class="arrow arrow2" d="M 260 180 L 360 180"></path><path class="arrow arrow5" d="M 310 450 L 340 450 A 20 20, 0, 0, 0, 360 430 L 360 180"></path><path class="arrow arrow6" d="M 360 180 L 360 520 A 20 20, 0, 0, 0, 380 540 L 410 540"></path><path class="arrow arrow2" d="M 360 180 L 460 180"></path><path class="arrow arrow6" d="M 410 540 L 440 540 A 20 20, 0, 0, 0, 460 520 L 460 180"></path><path class="arrow arrow7" d="M 460 180 L 460 610 A 20 20, 0, 0, 0, 480 630 L 510 630"></path><path class="arrow arrow2" d="M 460 180 L 560 180"></path><path class="arrow arrow7" d="M 510 630 L 540 630 A 20 20, 0, 0, 0, 560 610 L 560 180"></path><path class="arrow arrow0" d="M 560 180 L 560 700 A 20 20, 0, 0, 0, 580 720 L 610 720"></path><path class="arrow arrow2" d="M 560 180 L 660 180"></path><path class="arrow arrow0" d="M 610 720 L 640 720 A 20 20, 0, 0, 0, 660 700 L 660 180"></path><path class="arrow arrow1" d="M 10 0 L 10 70 A 20 20, 0, 0, 0, 30 90 L 710 90"></path><path class="arrow arrow2" d="M 660 180 L 690 180 A 20 20, 0, 0, 0, 710 160 L 710 90"></path><path class="arrow arrow0" d="M 10 0 L 760 0"></path><path class="arrow arrow1" d="M 710 90 L 740 90 A 20 20, 0, 0, 0, 760 70 L 760 0"></path><path class="arrow arrow2" d="M 660 180 L 810 180"></path><path class="arrow arrow1" d="M 810 180 L 810 790 A 20 20, 0, 0, 0, 830 810 L 860 810"></path><path class="arrow arrow2" d="M 810 180 L 910 180"></path><path class="arrow arrow1" d="M 860 810 L 890 810 A 20 20, 0, 0, 0, 910 790 L 910 180"></path><path class="arrow arrow2" d="M 910 180 L 910 880 A 20 20, 0, 0, 0, 930 900 L 960 900"></path><path class="arrow arrow2" d="M 910 180 L 1010 180"></path><path class="arrow arrow2" d="M 960 900 L 990 900 A 20 20, 0, 0, 0, 1010 880 L 1010 180"></path><path class="arrow arrow3" d="M 1010 180 L 1010 970 A 20 20, 0, 0, 0, 1030 990 L 1060 990"></path><path class="arrow arrow2" d="M 1010 180 L 1110 180"></path><path class="arrow arrow3" d="M 1060 990 L 1090 990 A 20 20, 0, 0, 0, 1110 970 L 1110 180"></path><path class="arrow arrow1" d="M 710 90 L 1160 90"></path><path class="arrow arrow2" d="M 1110 180 L 1140 180 A 20 20, 0, 0, 0, 1160 160 L 1160 90"></path><path class="arrow arrow0" d="M 760 0 L 1210 0"></path><path class="arrow arrow1" d="M 1160 90 L 1190 90 A 20 20, 0, 0, 0, 1210 70 L 1210 0"></path><path class="arrow arrow2" d="M 1110 180 L 1260 180"></path><path class="arrow arrow4" d="M 1260 180 L 1260 1060 A 20 20, 0, 0, 0, 1280 1080 L 1310 1080"></path><path class="arrow arrow2" d="M 1260 180 L 1360 180"></path><path class="arrow arrow4" d="M 1310 1080 L 1340 1080 A 20 20, 0, 0, 0, 1360 1060 L 1360 180"></path><path class="arrow arrow5" d="M 1360 180 L 1360 1150 A 20 20, 0, 0, 0, 1380 1170 L 1410 1170"></path><path class="arrow arrow2" d="M 1360 180 L 1460 180"></path><path class="arrow arrow5" d="M 1410 1170 L 1440 1170 A 20 20, 0, 0, 0, 1460 1150 L 1460 180"></path><path class="arrow arrow1" d="M 1160 90 L 1510 90"></path><path class="arrow arrow2" d="M 1460 180 L 1490 180 A 20 20, 0, 0, 0, 1510 160 L 1510 90"></path><path class="arrow arrow0" d="M 1210 0 L 1560 0"></path><path class="arrow arrow1" d="M 1510 90 L 1540 90 A 20 20, 0, 0, 0, 1560 70 L 1560 0"></path></g><g class="commit-bullets"><circle class="commit Commit inicial commit0" r="10" cy="0" cx="10"></circle><circle class="commit Commit em develop commit2" r="10" cy="180" cx="60"></circle><circle class="commit Criada classe para validação de data commit3" r="10" cy="270" cx="110"></circle><circle class="commit Merge feature/data commit2" r="9" cy="180" cx="160"></circle><circle class="commit commit-merge Merge feature/data commit2" r="6" cy="180" cx="160"></circle><circle class="commit Criadas funções para classificação de sustentabilidade commit4" r="10" cy="360" cx="210"></circle><circle class="commit 5-a9a5add commit2" r="9" cy="180" cx="260"></circle><circle class="commit commit-merge 5-a9a5add commit2" r="6" cy="180" cx="260"></circle><circle class="commit Criada as funções para validação da inserção de dados relacionados à geração de lixo commit5" r="10" cy="450" cx="310"></circle><circle class="commit Merge feature/geracao_lixo commit2" r="9" cy="180" cx="360"></circle><circle class="commit commit-merge Merge feature/geracao_lixo commit2" r="6" cy="180" cx="360"></circle><circle class="commit Criada função para validar consumo de água commit6" r="10" cy="540" cx="410"></circle><circle class="commit Merge feature/consumo_agua commit2" r="9" cy="180" cx="460"></circle><circle class="commit commit-merge Merge feature/consumo_agua commit2" r="6" cy="180" cx="460"></circle><circle class="commit Criado arquivo para validação de consumo de energia commit7" r="10" cy="630" cx="510"></circle><circle class="commit Merge feature/consumo_energia commit2" r="9" cy="180" cx="560"></circle><circle class="commit commit-merge Merge feature/consumo_energia commit2" r="6" cy="180" cx="560"></circle><circle class="commit Recurso responsável por realizar a validação do uso dos transportes commit0" r="10" cy="720" cx="610"></circle><circle class="commit Merge feature/uso_transportes commit2" r="9" cy="180" cx="660"></circle><circle class="commit commit-merge Merge feature/uso_transportes commit2" r="6" cy="180" cx="660"></circle><circle class="commit Merge fere em release commit1" r="9" cy="90" cx="710"></circle><circle class="commit commit-merge Merge fere em release commit1" r="6" cy="90" cx="710"></circle><circle class="commit Release v1.0.1b commit0" r="9" cy="0" cx="760"></circle><circle class="commit commit-merge Release v1.0.1b commit0" r="6" cy="0" cx="760"></circle><circle class="commit Commit re em develop commit2" r="10" cy="180" cx="810"></circle><circle class="commit Commit na feature/integracao_bd commit1" r="10" cy="810" cx="860"></circle><circle class="commit Merge da feature/integracao_bd em develop commit2" r="9" cy="180" cx="910"></circle><circle class="commit commit-merge Merge da feature/integracao_bd em develop commit2" r="6" cy="180" cx="910"></circle><circle class="commit Commit na feature/historico commit2" r="10" cy="900" cx="960"></circle><circle class="commit Merge da feature/historico em develop commit2" r="9" cy="180" cx="1010"></circle><circle class="commit commit-merge Merge da feature/historico em develop commit2" r="6" cy="180" cx="1010"></circle><circle class="commit Commit na feature/CRUD commit3" r="10" cy="990" cx="1060"></circle><circle class="commit Merge da feature/CRUD em develop commit2" r="9" cy="180" cx="1110"></circle><circle class="commit commit-merge Merge da feature/CRUD em develop commit2" r="6" cy="180" cx="1110"></circle><circle class="commit Merge develop em release commit1" r="9" cy="90" cx="1160"></circle><circle class="commit commit-merge Merge develop em release commit1" r="6" cy="90" cx="1160"></circle><circle class="commit Release v1.0.1a commit0" r="9" cy="0" cx="1210"></circle><circle class="commit commit-merge Release v1.0.1a commit0" r="6" cy="0" cx="1210"></circle><circle class="commit Commit extra em develop commit2" r="10" cy="180" cx="1260"></circle><circle class="commit Commit na feature/menu commit4" r="10" cy="1080" cx="1310"></circle><circle class="commit Merge da feature/menu em develop commit2" r="9" cy="180" cx="1360"></circle><circle class="commit commit-merge Merge da feature/menu em develop commit2" r="6" cy="180" cx="1360"></circle><circle class="commit Commit na feature/media commit5" r="10" cy="1170" cx="1410"></circle><circle class="commit Merge da feature/media em develop commit2" r="9" cy="180" cx="1460"></circle><circle class="commit commit-merge Merge da feature/media em develop commit2" r="6" cy="180" cx="1460"></circle><circle class="commit Merge final de develop em release commit1" r="9" cy="90" cx="1510"></circle><circle class="commit commit-merge Merge final de develop em release commit1" r="6" cy="90" cx="1510"></circle><circle class="commit Release v1.0.2 commit0" r="9" cy="0" cx="1560"></circle><circle class="commit commit-merge Release v1.0.2 commit0" r="6" cy="0" cx="1560"></circle></g><g class="commit-labels"><g transform="translate(-35.96197448730469, 32.06597717285156) rotate(-45, 0, 0)"><rect height="16" width="68.89993286132812" y="13.5" x="-24.449966430664062" class="commit-label-bkg"></rect><text class="commit-label" y="25" x="-22.449966430664062">Commit inicial</text></g><g transform="translate(-45.716573791503905, 40.793776550292975) rotate(-45, 50, 180)"><rect height="16" width="94.56993103027344" y="193.5" x="12.715034484863281" class="commit-label-bkg"></rect><text class="commit-label" y="205" x="14.715034484863281">Commit em develop</text></g><g transform="translate(-74.0890625, 66.1796875) rotate(-45, 100, 270)"><rect height="16" width="169.234375" y="283.5" x="25.3828125" class="commit-label-bkg"></rect><text class="commit-label" y="295" x="27.3828125">Criada classe para validação de data</text></g><g transform="translate(-44.6153125, 39.8084375) rotate(-45, 150, 180)"><rect height="16" width="91.671875" y="193.5" x="114.1640625" class="commit-label-bkg"></rect><text class="commit-label" y="205" x="116.1640625">Merge feature/data</text></g><g transform="translate(-105.2371875, 94.0490625) rotate(-45, 200, 360)"><rect height="16" width="251.203125" y="373.5" x="84.3984375" class="commit-label-bkg"></rect><text class="commit-label" y="385" x="86.3984375">Criadas funções para classificação de sustentabilidade</text></g><g transform="translate(-159.0818933105469, 142.22590454101564) rotate(-45, 300, 450)"><rect height="16" width="392.89971923828125" y="463.5" x="113.55014038085938" class="commit-label-bkg"></rect><text class="commit-label" y="475" x="115.55014038085938">Criada as funções para validação da inserção de dados relacionados à geração de lixo</text></g><g transform="translate(-58.522561035156244, 52.25176513671875) rotate(-45, 350, 180)"><rect height="16" width="128.2698974609375" y="193.5" x="295.86505126953125" class="commit-label-bkg"></rect><text class="commit-label" y="205" x="297.86505126953125">Merge feature/geracao_lixo</text></g><g transform="translate(-87.89375, 78.53125) rotate(-45, 400, 540)"><rect height="16" width="205.5625" y="553.5" x="307.21875" class="commit-label-bkg"></rect><text class="commit-label" y="565" x="309.21875">Criada função para validar consumo de água</text></g><g transform="translate(-62.582187499999996, 55.8840625) rotate(-45, 450, 180)"><rect height="16" width="138.953125" y="193.5" x="390.5234375" class="commit-label-bkg"></rect><text class="commit-label" y="205" x="392.5234375">Merge feature/consumo_agua</text></g><g transform="translate(-103.913125, 92.864375) rotate(-45, 500, 630)"><rect height="16" width="247.71875" y="643.5" x="386.140625" class="commit-label-bkg"></rect><text class="commit-label" y="655" x="388.140625">Criado arquivo para validação de consumo de energia</text></g><g transform="translate(-67.2253125, 60.0384375) rotate(-45, 550, 180)"><rect height="16" width="151.171875" y="193.5" x="484.4140625" class="commit-label-bkg"></rect><text class="commit-label" y="205" x="486.4140625">Merge feature/consumo_energia</text></g><g transform="translate(-128.89851928710937, 115.21972778320313) rotate(-45, 600, 720)"><rect height="16" width="313.46978759765625" y="733.5" x="453.2651062011719" class="commit-label-bkg"></rect><text class="commit-label" y="745" x="455.2651062011719">Recurso responsável por realizar a validação do uso dos transportes</text></g><g transform="translate(-64.96736938476562, 58.018172607421874) rotate(-45, 650, 180)"><rect height="16" width="145.22991943359375" y="193.5" x="587.3850402832031" class="commit-label-bkg"></rect><text class="commit-label" y="205" x="589.3850402832031">Merge feature/uso_transportes</text></g><g transform="translate(-49.22875, 43.93625) rotate(-45, 700, 90)"><rect height="16" width="103.8125" y="103.5" x="658.09375" class="commit-label-bkg"></rect><text class="commit-label" y="115" x="660.09375">Merge fere em release</text></g><g transform="translate(-36.535789794921875, 32.579390869140624) rotate(-45, 750, 0)"><rect height="16" width="70.40997314453125" y="13.5" x="724.7950134277344" class="commit-label-bkg"></rect><text class="commit-label" y="25" x="726.7950134277344">Release v1.0.1b</text></g><g transform="translate(-50.147369384765625, 44.75817260742187) rotate(-45, 800, 180)"><rect height="16" width="106.22991943359375" y="193.5" x="756.8850402832031" class="commit-label-bkg"></rect><text class="commit-label" y="205" x="758.8850402832031">Commit re em develop</text></g><g transform="translate(-69.71734619140625, 62.268151855468744) rotate(-45, 850, 810)"><rect height="16" width="157.7298583984375" y="823.5" x="781.1350708007812" class="commit-label-bkg"></rect><text class="commit-label" y="835" x="783.1350708007812">Commit na feature/integracao_bd</text></g><g transform="translate(-88.13973876953125, 78.75134521484375) rotate(-45, 900, 180)"><rect height="16" width="206.2098388671875" y="193.5" x="806.8950805664062" class="commit-label-bkg"></rect><text class="commit-label" y="205" x="808.8950805664062">Merge da feature/integracao_bd em develop</text></g><g transform="translate(-60.31995361328126, 53.85995849609375) rotate(-45, 950, 900)"><rect height="16" width="132.9998779296875" y="913.5" x="893.5000610351562" class="commit-label-bkg"></rect><text class="commit-label" y="925" x="895.5000610351562">Commit na feature/historico</text></g><g transform="translate(-78.689140625, 70.295546875) rotate(-45, 1000, 180)"><rect height="16" width="181.33984375" y="193.5" x="919.330078125" class="commit-label-bkg"></rect><text class="commit-label" y="205" x="921.330078125">Merge da feature/historico em develop</text></g><g transform="translate(-54.441875, 48.600625) rotate(-45, 1050, 990)"><rect height="16" width="117.53125" y="1003.5" x="1001.234375" class="commit-label-bkg"></rect><text class="commit-label" y="1015" x="1003.234375">Commit na feature/CRUD</text></g><g transform="translate(-72.87136474609375, 65.09016845703124) rotate(-45, 1100, 180)"><rect height="16" width="166.0299072265625" y="193.5" x="1026.9850463867188" class="commit-label-bkg"></rect><text class="commit-label" y="205" x="1028.9850463867188">Merge da feature/CRUD em develop</text></g><g transform="translate(-56.324062500000004, 50.2846875) rotate(-45, 1150, 90)"><rect height="16" width="122.484375" y="103.5" x="1098.7578125" class="commit-label-bkg"></rect><text class="commit-label" y="115" x="1100.7578125">Merge develop em release</text></g><g transform="translate(-36.326562499999994, 32.3921875) rotate(-45, 1200, 0)"><rect height="16" width="69.859375" y="13.5" x="1175.0703125" class="commit-label-bkg"></rect><text class="commit-label" y="25" x="1177.0703125">Release v1.0.1a</text></g><g transform="translate(-55.37614990234375, 49.43655517578125) rotate(-45, 1250, 180)"><rect height="16" width="119.9898681640625" y="193.5" x="1200.0050659179688" class="commit-label-bkg"></rect><text class="commit-label" y="205" x="1202.0050659179688">Commit extra em develop</text></g><g transform="translate(-54.81, 48.93) rotate(-45, 1300, 1080)"><rect height="16" width="118.5" y="1093.5" x="1250.75" class="commit-label-bkg"></rect><text class="commit-label" y="1105" x="1252.75">Commit na feature/menu</text></g><g transform="translate(-73.23614990234375, 65.41655517578124) rotate(-45, 1350, 180)"><rect height="16" width="166.9898681640625" y="193.5" x="1276.5050659179688" class="commit-label-bkg"></rect><text class="commit-label" y="205" x="1278.5050659179688">Merge da feature/menu em develop</text></g><g transform="translate(-55.78375, 49.80125) rotate(-45, 1400, 1170)"><rect height="16" width="121.0625" y="1183.5" x="1349.46875" class="commit-label-bkg"></rect><text class="commit-label" y="1195" x="1351.46875">Commit na feature/media</text></g><g transform="translate(-74.20897216796875, 66.28697509765625) rotate(-45, 1450, 180)"><rect height="16" width="169.5499267578125" y="193.5" x="1375.2250366210938" class="commit-label-bkg"></rect><text class="commit-label" y="205" x="1377.2250366210938">Merge da feature/media em develop</text></g><g transform="translate(-70.235625, 62.731875) rotate(-45, 1500, 90)"><rect height="16" width="159.09375" y="103.5" x="1430.453125" class="commit-label-bkg"></rect><text class="commit-label" y="115" x="1432.453125">Merge final de develop em release</text></g><g transform="translate(-34.89038330078125, 31.10718505859375) rotate(-45, 1550, 0)"><rect height="16" width="66.0799560546875" y="13.5" x="1526.9600219726562" class="commit-label-bkg"></rect><text class="commit-label" y="25" x="1528.9600219726562">Release v1.0.2</text></g></g></svg>